<?xml version="1.0" encoding="UTF-8" standalone="no"?>
<!DOCTYPE svg PUBLIC "-//W3C//DTD SVG 1.1//EN" "http://www.w3.org/Graphics/SVG/1.1/DTD/svg11.dtd">
<svg version="1.1" xmlns="http://www.w3.org/2000/svg" xmlns:xlink="http://www.w3.org/1999/xlink" preserveAspectRatio="xMidYMid meet" viewBox="-1 97.57142857142857 355.63265306122446 355.42857142857144" width="351.63" height="351.43"><defs><path d="M179.87 98.88L181.18 99.11L182.46 99.41L183.72 99.77L184.96 100.19L186.16 100.66L187.33 101.19L188.47 101.78L189.57 102.42L190.64 103.11L191.67 103.85L192.66 104.63L193.61 105.46L194.51 106.34L195.37 107.26L196.19 108.22L196.95 109.21L197.66 110.25L198.32 111.32L198.93 112.42L199.47 113.56L199.97 114.72L200.4 115.91L200.77 117.13L201.07 118.38L201.32 119.65L201.49 120.94L201.6 122.24L201.63 123.57L201.6 124.9L201.49 126.21L201.32 127.5L201.07 128.76L201.01 129.03L301.08 167.87L301.24 167.34L301.67 166.15L302.16 164.98L302.71 163.85L303.31 162.75L303.97 161.68L304.68 160.64L305.45 159.65L306.26 158.69L307.12 157.77L308.02 156.89L308.97 156.06L309.96 155.28L310.99 154.54L312.06 153.85L313.16 153.21L314.3 152.62L315.47 152.09L316.68 151.61L317.91 151.2L319.17 150.84L320.45 150.54L321.76 150.31L323.09 150.14L324.45 150.03L325.82 150L327.19 150.03L328.54 150.14L329.87 150.31L331.18 150.54L332.46 150.84L333.72 151.2L334.96 151.61L336.16 152.09L337.33 152.62L338.04 152.99L338.63 152.34L338.56 153.26L339.57 153.85L340.64 154.54L341.67 155.28L342.66 156.06L343.61 156.89L344.51 157.77L345.37 158.69L346.19 159.65L346.95 160.64L347.66 161.68L348.32 162.75L348.93 163.85L349.47 164.98L349.97 166.15L350.4 167.34L350.77 168.56L351.07 169.81L351.32 171.07L351.49 172.36L351.6 173.67L351.63 175L351.6 176.33L351.49 177.64L351.32 178.93L351.07 180.19L350.77 181.44L350.4 182.66L349.97 183.85L349.47 185.02L348.93 186.15L348.32 187.25L347.66 188.32L346.95 189.36L346.19 190.35L345.37 191.31L344.51 192.23L343.61 193.11L342.66 193.94L341.67 194.72L340.64 195.46L339.57 196.15L338.47 196.79L337.33 197.38L336.16 197.91L334.96 198.39L333.72 198.8L332.46 199.16L331.18 199.46L329.87 199.69L328.54 199.86L327.19 199.97L325.82 200L324.45 199.97L323.09 199.86L321.76 199.69L320.88 199.54L272.21 281.48L312.2 353.76L313.16 353.21L314.3 352.62L315.47 352.09L316.68 351.61L317.91 351.2L319.17 350.84L320.45 350.54L321.76 350.31L323.09 350.14L324.45 350.03L325.82 350L327.19 350.03L328.54 350.14L329.87 350.31L331.18 350.54L332.46 350.84L333.72 351.2L334.96 351.61L336.16 352.09L337.33 352.62L338.47 353.21L339.57 353.85L340.64 354.54L341.67 355.28L342.66 356.06L343.61 356.89L344.51 357.77L345.37 358.69L346.19 359.65L346.95 360.64L347.66 361.68L348.32 362.75L348.93 363.85L349.47 364.98L349.97 366.15L350.4 367.34L350.77 368.56L351.07 369.81L351.32 371.07L351.49 372.36L351.6 373.67L351.63 375L351.6 376.33L351.49 377.64L351.32 378.93L351.07 380.19L350.77 381.44L350.4 382.66L349.97 383.85L349.47 385.02L348.93 386.15L348.32 387.25L347.66 388.32L346.95 389.36L346.19 390.35L345.37 391.31L344.51 392.23L343.61 393.11L342.66 393.94L341.67 394.72L340.64 395.46L339.57 396.15L338.47 396.79L337.33 397.38L336.16 397.91L334.96 398.39L333.72 398.8L332.46 399.16L331.18 399.46L329.87 399.69L329.86 399.69L329.55 400L329.33 399.76L328.54 399.86L327.19 399.97L325.82 400L324.45 399.97L323.09 399.86L321.76 399.69L320.45 399.46L319.17 399.16L317.91 398.8L316.68 398.39L315.47 397.91L314.3 397.38L313.16 396.79L312.06 396.15L310.99 395.46L309.96 394.72L308.97 393.94L308.02 393.11L307.12 392.23L306.26 391.31L305.45 390.35L304.68 389.36L303.97 388.32L303.31 387.25L303.01 386.7L201.52 427.22L201.49 427.64L201.32 428.93L201.07 430.19L200.77 431.44L200.4 432.66L199.97 433.85L199.47 435.02L198.93 436.15L198.32 437.25L197.66 438.32L196.95 439.36L196.19 440.35L195.37 441.31L194.51 442.23L193.61 443.11L192.66 443.94L191.67 444.72L190.64 445.46L189.57 446.15L188.47 446.79L187.33 447.38L186.16 447.91L184.96 448.39L183.72 448.8L182.46 449.16L181.18 449.46L179.87 449.69L178.54 449.86L177.19 449.97L175.82 450L174.45 449.97L173.09 449.86L171.76 449.69L170.45 449.46L169.17 449.16L167.91 448.8L166.68 448.39L165.47 447.91L164.3 447.38L163.16 446.79L162.06 446.15L160.99 445.46L159.96 444.72L158.97 443.94L158.02 443.11L157.12 442.23L156.26 441.31L155.45 440.35L154.68 439.36L153.97 438.32L153.31 437.25L152.71 436.15L152.16 435.02L151.67 433.85L151.24 432.66L150.87 431.44L150.56 430.19L150.32 428.93L150.14 427.64L150.04 426.33L150 425L150.04 423.67L150.14 422.36L150.32 421.07L150.56 419.81L150.61 419.61L48.03 387.73L47.66 388.32L46.95 389.36L46.19 390.35L45.37 391.31L44.51 392.23L43.61 393.11L42.66 393.94L41.67 394.72L40.64 395.46L39.57 396.15L38.47 396.79L37.33 397.38L36.16 397.91L34.96 398.39L33.72 398.8L32.46 399.16L31.18 399.46L29.87 399.69L28.54 399.86L27.19 399.97L25.82 400L24.45 399.97L23.09 399.86L21.76 399.69L20.45 399.46L19.17 399.16L17.91 398.8L16.68 398.39L15.47 397.91L14.3 397.38L13.16 396.79L12.06 396.15L10.99 395.46L9.96 394.72L8.97 393.94L8.02 393.11L7.12 392.23L6.26 391.31L5.45 390.35L4.68 389.36L3.97 388.32L3.31 387.25L2.71 386.15L2.16 385.02L1.67 383.85L1.24 382.66L0.87 381.44L0.56 380.19L0.32 378.93L0.14 377.64L0.04 376.33L0 375L0.04 373.67L0.14 372.36L0.32 371.07L0.56 369.81L0.87 368.56L1.24 367.34L1.67 366.15L2.16 364.98L2.71 363.85L3.31 362.75L3.97 361.68L4.68 360.64L5.45 359.65L6.26 358.69L7.12 357.77L8.02 356.89L8.97 356.06L9.96 355.28L10.99 354.54L12.06 353.85L13.16 353.21L14.3 352.62L15.47 352.09L16.68 351.61L17.91 351.2L19.17 350.84L20.45 350.54L21.76 350.31L23.09 350.14L24.45 350.03L25.82 350L27.19 350.03L28.54 350.14L29.87 350.31L31.18 350.54L32.46 350.84L33.72 351.2L34.96 351.61L36.16 352.09L37.33 352.62L38.47 353.21L39.57 353.85L40.64 354.54L41.67 355.28L42.66 356.06L43.03 356.39L85.47 281.36L38.28 196.89L37.33 197.38L36.16 197.91L34.96 198.39L33.72 198.8L32.46 199.16L31.18 199.46L29.87 199.69L28.54 199.86L27.19 199.97L25.82 200L24.45 199.97L23.09 199.86L21.76 199.69L20.45 199.46L19.17 199.16L17.91 198.8L16.68 198.39L15.47 197.91L14.3 197.38L13.16 196.79L12.06 196.15L10.99 195.46L9.96 194.72L8.97 193.94L8.02 193.11L7.12 192.23L6.26 191.31L5.45 190.35L4.68 189.36L3.97 188.32L3.31 187.25L2.71 186.15L2.16 185.02L1.67 183.85L1.24 182.66L0.87 181.44L0.56 180.19L0.32 178.93L0.14 177.64L0.04 176.33L0 175L0.04 173.67L0.14 172.36L0.32 171.07L0.56 169.81L0.87 168.56L1.24 167.34L1.67 166.15L2.16 164.98L2.71 163.85L3.31 162.75L3.97 161.68L4.68 160.64L5.45 159.65L6.26 158.69L7.12 157.77L8.02 156.89L8.97 156.06L9.96 155.28L10.99 154.54L12.06 153.85L13.16 153.21L14.3 152.62L15.47 152.09L16.68 151.61L17.91 151.2L19.17 150.84L20.45 150.54L21.76 150.31L23.09 150.14L24.45 150.03L25.82 150L27.19 150.03L28.54 150.14L29.87 150.31L31.18 150.54L32.46 150.84L33.72 151.2L34.96 151.61L36.16 152.09L37.33 152.62L38.47 153.21L39.57 153.85L40.64 154.54L41.67 155.28L42.66 156.06L43.61 156.89L44.51 157.77L45.37 158.69L46.19 159.65L46.95 160.64L47.66 161.68L48.32 162.75L48.93 163.85L49.47 164.98L49.97 166.15L50.4 167.34L50.77 168.56L51.07 169.81L51.32 171.07L51.49 172.36L51.6 173.67L51.63 175L51.6 176.05L152.89 135.06L152.71 134.72L152.16 133.59L151.67 132.42L151.24 131.23L150.87 130.01L150.56 128.76L150.32 127.5L150.14 126.21L150.04 124.9L150 123.57L150.04 122.24L150.14 120.94L150.32 119.65L150.56 118.38L150.87 117.13L151.24 115.91L151.67 114.72L152.16 113.56L152.71 112.42L153.31 111.32L153.97 110.25L154.68 109.21L155.45 108.22L156.26 107.26L157.12 106.34L158.02 105.46L158.97 104.63L159.96 103.85L160.99 103.11L162.06 102.42L163.16 101.78L164.3 101.19L165.47 100.66L166.68 100.19L167.91 99.77L169.17 99.41L170.45 99.11L171.76 98.88L173.09 98.71L174.45 98.61L175.82 98.57L177.19 98.61L178.54 98.71L178.54 98.71L179.87 98.88ZM196.95 410.64L197.66 411.68L198.32 412.75L198.93 413.85L199.47 414.98L199.97 416.15L200.4 417.34L200.77 418.56L201.07 419.81L201.32 421.07L201.49 422.36L201.52 422.73L301.16 382.41L300.87 381.44L300.56 380.19L300.32 378.93L300.14 377.64L300.04 376.33L300 375L300.04 373.67L300.14 372.36L300.32 371.07L300.36 370.84L231.78 349.53L196.12 409.57L196.19 409.65L196.19 409.65L196.95 410.64ZM51.32 378.93L51.07 380.19L50.77 381.44L50.4 382.66L50.18 383.25L152.4 414.49L152.71 413.85L153.31 412.75L153.97 411.68L154.68 410.64L155.45 409.65L156.26 408.69L156.49 408.44L124.46 351.13L51.5 377.56L51.49 377.64L51.49 377.64L51.32 378.93ZM196.19 341.58L195.37 342.54L194.51 343.46L193.61 344.33L192.66 345.16L191.67 345.95L190.64 346.69L189.57 347.38L188.47 348.02L187.33 348.6L186.16 349.13L184.96 349.61L183.72 350.03L182.46 350.39L181.18 350.68L179.87 350.92L178.54 351.09L177.19 351.19L175.82 351.22L174.45 351.19L173.09 351.09L171.76 350.92L170.45 350.68L169.17 350.39L167.91 350.03L166.68 349.61L165.47 349.13L164.3 348.6L163.16 348.02L162.06 347.38L160.99 346.69L159.96 345.95L158.97 345.16L158.02 344.33L157.12 343.46L156.26 342.54L155.45 341.58L154.68 340.58L154.46 340.26L130.92 348.79L161.56 404.17L162.06 403.85L163.16 403.21L164.3 402.62L165.47 402.09L166.68 401.61L167.91 401.2L169.17 400.84L170.45 400.54L171.76 400.31L173.09 400.14L174.45 400.03L175.82 400L177.19 400.03L178.54 400.14L179.87 400.31L181.18 400.54L182.46 400.84L183.72 401.2L184.96 401.61L186.16 402.09L187.33 402.62L188.47 403.21L189.57 403.85L190.64 404.54L191.02 404.81L224.8 347.36L197.98 339.03L197.66 339.55L196.95 340.58L196.95 340.58L196.19 341.58ZM50.4 367.34L50.77 368.56L51.07 369.81L51.32 371.07L51.49 372.36L51.49 372.38L121.88 346.51L100.46 308.17L49.71 365.55L49.97 366.15L49.97 366.15L50.4 367.34ZM252.04 315.43L234.44 345.07L296.62 364.07L296.62 364.07L252.04 315.43ZM303.31 362.75L303.97 361.68L304.68 360.64L305.45 359.65L306.26 358.69L306.98 357.92L268.11 288.37L254.82 310.75L303.14 363.07L303.14 363.07L303.31 362.75ZM89.18 287.98L49.33 357.74L97.77 303.37L97.77 303.37L89.18 287.98ZM151.84 335.49L151.67 335.08L151.24 333.88L150.87 332.66L150.56 331.42L150.32 330.15L150.14 328.86L150.04 327.55L150 326.22L150.04 324.9L150.14 323.59L150.32 322.3L150.56 321.03L150.87 319.79L151.24 318.57L151.67 317.37L152.16 316.21L152.71 315.07L153.31 313.97L153.97 312.9L154.68 311.87L155.45 310.87L155.49 310.82L125.83 279.48L105.38 302.61L128.35 344.13L128.35 344.13L151.84 335.49ZM199.97 317.37L200.4 318.57L200.77 319.79L201.07 321.03L201.32 322.3L201.49 323.59L201.6 324.9L201.63 326.22L201.6 327.55L201.49 328.86L201.32 330.15L201.07 331.42L200.77 332.66L200.4 333.88L200.14 334.59L227.42 342.92L246.89 309.81L225.05 285.98L198.93 315.08L199.47 316.21L199.47 316.21L199.97 317.37ZM158.97 307.29L159.96 306.5L160.99 305.76L162.06 305.07L163.16 304.43L164.3 303.85L165.47 303.31L166.68 302.84L167.91 302.42L169.17 302.06L170.45 301.77L171.76 301.53L173.09 301.36L174.45 301.26L175.82 301.22L177.19 301.26L178.54 301.36L179.87 301.53L181.18 301.77L182.46 302.06L183.72 302.42L184.96 302.84L186.16 303.31L187.33 303.85L188.47 304.43L189.57 305.07L190.64 305.76L191.67 306.5L192.66 307.29L193.61 308.12L194.51 308.99L195.37 309.91L195.74 310.34L221.38 281.98L188.9 246.54L188.47 246.79L187.33 247.38L186.16 247.91L184.96 248.39L183.72 248.8L182.46 249.16L181.18 249.46L179.87 249.69L178.54 249.86L177.19 249.97L175.82 250L174.45 249.97L173.09 249.86L171.76 249.69L170.45 249.46L169.17 249.16L167.91 248.8L166.68 248.39L165.47 247.91L164.3 247.38L163.16 246.79L162.06 246.15L160.99 245.46L159.96 244.72L158.97 243.94L158.02 243.11L158.01 243.09L129.17 275.7L158.9 307.35L158.9 307.35L158.97 307.29ZM263.92 280.86L250.77 257.33L228.45 282.19L249.64 305.14L249.64 305.14L263.92 280.86ZM122.34 275.8L106 258.54L93.3 280.78L102.72 297.82L102.72 297.82L122.34 275.8ZM201.63 225L201.6 226.33L201.49 227.64L201.32 228.93L201.07 230.19L200.77 231.44L200.4 232.66L199.97 233.85L199.47 235.02L198.93 236.15L198.32 237.25L197.66 238.32L196.95 239.36L196.19 240.35L195.37 241.31L194.51 242.23L193.61 243.11L192.92 243.72L224.78 278.22L248.06 252.48L226.52 213.94L201.5 222.42L201.6 223.67L201.6 223.67L201.63 225ZM45.84 195L89.59 274.08L101.23 253.5L101.23 253.5L45.84 195ZM313.32 196.87L313.16 196.79L312.06 196.15L310.99 195.46L309.96 194.72L308.97 193.94L308.24 193.3L255.77 251.76L268.01 273.9L268.01 273.9L313.32 196.87ZM154.74 239.44L154.68 239.36L153.97 238.32L153.31 237.25L152.71 236.15L152.16 235.02L151.67 233.85L151.24 232.66L150.87 231.44L150.56 230.19L150.32 228.93L150.14 227.64L150.04 226.33L150 225L150.04 223.67L150.14 222.36L150.32 221.07L150.56 219.81L150.82 218.75L132.06 212.92L108.66 253.88L125.71 272.02L125.71 272.02L154.74 239.44ZM47.41 188.69L103.89 248.8L125.36 210.84L48.49 186.95L48.32 187.25L47.66 188.32L47.66 188.32L47.41 188.69ZM304.9 189.64L304.68 189.36L303.97 188.32L303.67 187.83L233.53 211.57L253.09 246.92L253.09 246.92L304.9 189.64ZM184.96 146.96L183.72 147.37L182.46 147.73L181.18 148.03L179.87 148.26L178.54 148.43L177.19 148.54L175.82 148.57L174.45 148.54L173.09 148.43L171.76 148.26L170.45 148.03L169.29 147.76L134.77 208.18L152.79 213.69L153.31 212.75L153.97 211.68L154.68 210.64L155.45 209.65L156.26 208.69L157.12 207.77L158.02 206.89L158.97 206.06L159.96 205.28L160.99 204.54L162.06 203.85L163.16 203.21L164.3 202.62L165.47 202.09L166.68 201.61L167.91 201.2L169.17 200.84L170.45 200.54L171.76 200.31L173.09 200.14L174.45 200.03L175.82 200L177.19 200.03L178.54 200.14L179.87 200.31L181.18 200.54L182.46 200.84L183.72 201.2L184.96 201.61L186.16 202.09L187.33 202.62L188.47 203.21L189.57 203.85L190.64 204.54L191.67 205.28L192.66 206.06L193.61 206.89L194.51 207.77L195.37 208.69L196.19 209.65L196.95 210.64L197.66 211.68L198.32 212.75L198.93 213.85L199.47 214.98L199.97 216.15L200.4 217.34L200.46 217.56L224.02 209.46L188.26 145.47L187.33 145.95L186.16 146.48L186.16 146.48L184.96 146.96ZM198.32 135.82L197.66 136.89L196.95 137.93L196.19 138.93L195.37 139.88L194.51 140.8L194.43 140.89L231.03 207.05L301.32 182.89L301.24 182.66L300.87 181.44L300.56 180.19L300.32 178.93L300.14 177.64L300.04 176.33L300 175L300.04 173.67L300.14 172.41L199.76 132.91L199.47 133.59L198.93 134.72L198.93 134.72L198.32 135.82ZM50.47 182.42L128.03 206.12L162.59 145.03L162.06 144.72L160.99 144.03L159.96 143.3L158.97 142.51L158.02 141.68L157.12 140.8L156.26 139.88L155.48 138.96L50.95 180.7L50.77 181.44L50.77 181.44L50.47 182.42Z" id="a3MASpBCSo"></path><linearGradient id="gradientc1F9FSySFv" gradientUnits="userSpaceOnUse" x1="60.86" y1="451.24" x2="236.68" y2="233.06"><stop style="stop-color: #4451cf;stop-opacity: 1" offset="0%"></stop><stop style="stop-color: #1cb1b4;stop-opacity: 1" offset="100%"></stop></linearGradient></defs><g><g><use xlink:href="#a3MASpBCSo" opacity="1" fill="url(#gradientc1F9FSySFv)"></use><g><use xlink:href="#a3MASpBCSo" opacity="1" fill-opacity="0" stroke="#000000" stroke-width="1" stroke-opacity="1"></use></g></g></g></svg>